<svg width="400" height="400" viewBox="0 0 200 200" fill="#fff" xmlns="http://www.w3.org/2000/svg"><path d="M199.39 88.73a99.951 99.951 0 00-20.857-50.675 100.006 100.006 0 00-44.445-32.073 100.05 100.05 0 00-54.683-3.837 100.024 100.024 0 00-48.492 25.553A99.964 99.964 0 003.18 74.964a99.934 99.934 0 001.357 54.779 99.973 99.973 0 0030.04 45.836A100.033 100.033 0 0084.276 198.7c5.193.836 10.442 1.27 15.702 1.3a100.54 100.54 0 0056.406-17.295 10.036 10.036 0 00-3.776-18.159 10.045 10.045 0 00-7.525 1.563 80.039 80.039 0 01-73.077 8.357 80.016 80.016 0 01-31.186-21.441 79.946 79.946 0 01-1.375-105.032 80.008 80.008 0 0130.614-22.25 80.04 80.04 0 0137.42-5.694 80.028 80.028 0 0158.174 33.773 79.956 79.956 0 0111.834 66.2 14 14 0 01-15.369 10.164 14.005 14.005 0 01-8.67-4.655 13.99 13.99 0 01-3.464-9.208v-16.296a49.978 49.978 0 00-11.33-31.793 50.022 50.022 0 00-62.352-12.343 49.994 49.994 0 00-22.597 25.076 49.968 49.968 0 00-1.502 33.717A49.988 49.988 0 0072.48 141.67a50.016 50.016 0 0063.202-6.752 34.21 34.21 0 0028.603 15.096 33.615 33.615 0 0020.569-6.936 33.59 33.59 0 0012.035-18.058 102.834 102.834 0 002.501-36.29zm-99.412 41.29a29.999 29.999 0 01-27.72-18.514 29.984 29.984 0 016.504-32.685 30.007 30.007 0 0132.698-6.502 30.004 30.004 0 0113.465 11.047 29.982 29.982 0 01-3.732 37.87 30.01 30.01 0 01-21.215 8.784z"/></svg>